{
    "asset" : {
        "generator" : "Khronos glTF Blender I/O v1.3.48",
        "version" : "2.0"
    },
    "scene" : 0,
    "scenes" : [
        {
            "name" : "Scene",
            "nodes" : [
                0,
                1,
                2,
                3,
                4,
                5
            ]
        }
    ],
    "nodes" : [
        {
            "name" : "Light",
            "rotation" : [
                0.16907575726509094,
                0.7558803558349609,
                -0.27217137813568115,
                0.570947527885437
            ],
            "translation" : [
                4.076245307922363,
                5.903861999511719,
                -1.0054539442062378
            ]
        },
        {
            "name" : "Camera",
            "rotation" : [
                0.483536034822464,
                0.33687159419059753,
                -0.20870360732078552,
                0.7804827094078064
            ],
            "translation" : [
                7.358891487121582,
                4.958309173583984,
                6.925790786743164
            ]
        },
        {
            "mesh" : 0,
            "name" : "innerCenter",
            "rotation" : [
                0.7090848684310913,
                0.011862564831972122,
                0.0007517493213526905,
                0.7050229907035828
            ],
            "translation" : [
                0.01997235417366028,
                0.112562395632267,
                -0.004000811837613583
            ]
        },
        {
            "mesh" : 1,
            "name" : "fullOuter",
            "rotation" : [
                0.7090848684310913,
                0.011862564831972122,
                0.0007517493213526905,
                0.7050229907035828
            ],
            "translation" : [
                0.01997235417366028,
                0.112562395632267,
                -0.004000811837613583
            ]
        },
        {
            "mesh" : 2,
            "name" : "inner2",
            "rotation" : [
                0.7090848684310913,
                0.011862564831972122,
                0.0007517493213526905,
                0.7050229907035828
            ],
            "translation" : [
                0.01997235417366028,
                0.112562395632267,
                -0.004000811837613583
            ]
        },
        {
            "mesh" : 3,
            "name" : "innerD",
            "rotation" : [
                0.7090848684310913,
                0.011862564831972122,
                0.0007517493213526905,
                0.7050229907035828
            ],
            "translation" : [
                0.0213334858417511,
                0.11243307590484619,
                -0.004824410192668438
            ]
        }
    ],
    "materials" : [
        {
            "doubleSided" : true,
            "emissiveFactor" : [
                0,
                0,
                0
            ],
            "name" : "Material.004",
            "pbrMetallicRoughness" : {
                "baseColorFactor" : [
                    0.01938226819038391,
                    0.6104958653450012,
                    0.7991030216217041,
                    1
                ],
                "metallicFactor" : 0,
                "roughnessFactor" : 0.5
            }
        },
        {
            "doubleSided" : true,
            "emissiveFactor" : [
                0,
                0,
                0
            ],
            "name" : "SVGMat.006",
            "pbrMetallicRoughness" : {
                "baseColorFactor" : [
                    0.006048832554370165,
                    0.006048833951354027,
                    0.006048833951354027,
                    1
                ],
                "metallicFactor" : 0,
                "roughnessFactor" : 0.5
            }
        }
    ],
    "meshes" : [
        {
            "name" : "Curve.025",
            "primitives" : [
                {
                    "attributes" : {
                        "POSITION" : 0,
                        "NORMAL" : 1,
                        "TEXCOORD_0" : 2
                    },
                    "indices" : 3,
                    "material" : 0
                }
            ]
        },
        {
            "name" : "Curve.022",
            "primitives" : [
                {
                    "attributes" : {
                        "POSITION" : 4,
                        "NORMAL" : 5,
                        "TEXCOORD_0" : 6
                    },
                    "indices" : 7,
                    "material" : 0
                }
            ]
        },
        {
            "name" : "Curve.024",
            "primitives" : [
                {
                    "attributes" : {
                        "POSITION" : 8,
                        "NORMAL" : 9,
                        "TEXCOORD_0" : 10
                    },
                    "indices" : 11,
                    "material" : 1
                }
            ]
        },
        {
            "name" : "Curve.023",
            "primitives" : [
                {
                    "attributes" : {
                        "POSITION" : 12,
                        "NORMAL" : 13,
                        "TEXCOORD_0" : 14
                    },
                    "indices" : 15,
                    "material" : 1
                }
            ]
        }
    ],
    "accessors" : [
        {
            "bufferView" : 0,
            "componentType" : 5126,
            "count" : 200,
            "max" : [
                0.0747780129313469,
                0.0238801222294569,
                0.0534430593252182
            ],
            "min" : [
                -0.07786110788583755,
                -0.026559343561530113,
                -0.030533267185091972
            ],
            "type" : "VEC3"
        },
        {
            "bufferView" : 1,
            "componentType" : 5126,
            "count" : 200,
            "type" : "VEC3"
        },
        {
            "bufferView" : 2,
            "componentType" : 5126,
            "count" : 200,
            "type" : "VEC2"
        },
        {
            "bufferView" : 3,
            "componentType" : 5123,
            "count" : 378,
            "type" : "SCALAR"
        },
        {
            "bufferView" : 4,
            "componentType" : 5126,
            "count" : 1622,
            "max" : [
                0.17217254638671875,
                0.02483980916440487,
                0.12042874097824097
            ],
            "min" : [
                -0.15021291375160217,
                -0.02647058293223381,
                -0.1307259500026703
            ],
            "type" : "VEC3"
        },
        {
            "bufferView" : 5,
            "componentType" : 5126,
            "count" : 1622,
            "type" : "VEC3"
        },
        {
            "bufferView" : 6,
            "componentType" : 5126,
            "count" : 1622,
            "type" : "VEC2"
        },
        {
            "bufferView" : 7,
            "componentType" : 5123,
            "count" : 3426,
            "type" : "SCALAR"
        },
        {
            "bufferView" : 8,
            "componentType" : 5126,
            "count" : 4678,
            "max" : [
                0.16121119260787964,
                0.018601402640342712,
                -0.05390595272183418
            ],
            "min" : [
                0.08899865299463272,
                -0.021753650158643723,
                -0.12264999002218246
            ],
            "type" : "VEC3"
        },
        {
            "bufferView" : 9,
            "componentType" : 5126,
            "count" : 4678,
            "type" : "VEC3"
        },
        {
            "bufferView" : 10,
            "componentType" : 5126,
            "count" : 4678,
            "type" : "VEC2"
        },
        {
            "bufferView" : 11,
            "componentType" : 5123,
            "count" : 5616,
            "type" : "SCALAR"
        },
        {
            "bufferView" : 12,
            "componentType" : 5126,
            "count" : 6503,
            "max" : [
                0.11402086168527603,
                0.059602368623018265,
                0.09474416822195053
            ],
            "min" : [
                -0.12502740323543549,
                -0.020815856754779816,
                -0.06563856452703476
            ],
            "type" : "VEC3"
        },
        {
            "bufferView" : 13,
            "componentType" : 5126,
            "count" : 6503,
            "type" : "VEC3"
        },
        {
            "bufferView" : 14,
            "componentType" : 5126,
            "count" : 6503,
            "type" : "VEC2"
        },
        {
            "bufferView" : 15,
            "componentType" : 5123,
            "count" : 7806,
            "type" : "SCALAR"
        }
    ],
    "bufferViews" : [
        {
            "buffer" : 0,
            "byteLength" : 2400,
            "byteOffset" : 0
        },
        {
            "buffer" : 0,
            "byteLength" : 2400,
            "byteOffset" : 2400
        },
        {
            "buffer" : 0,
            "byteLength" : 1600,
            "byteOffset" : 4800
        },
        {
            "buffer" : 0,
            "byteLength" : 756,
            "byteOffset" : 6400
        },
        {
            "buffer" : 0,
            "byteLength" : 19464,
            "byteOffset" : 7156
        },
        {
            "buffer" : 0,
            "byteLength" : 19464,
            "byteOffset" : 26620
        },
        {
            "buffer" : 0,
            "byteLength" : 12976,
            "byteOffset" : 46084
        },
        {
            "buffer" : 0,
            "byteLength" : 6852,
            "byteOffset" : 59060
        },
        {
            "buffer" : 0,
            "byteLength" : 56136,
            "byteOffset" : 65912
        },
        {
            "buffer" : 0,
            "byteLength" : 56136,
            "byteOffset" : 122048
        },
        {
            "buffer" : 0,
            "byteLength" : 37424,
            "byteOffset" : 178184
        },
        {
            "buffer" : 0,
            "byteLength" : 11232,
            "byteOffset" : 215608
        },
        {
            "buffer" : 0,
            "byteLength" : 78036,
            "byteOffset" : 226840
        },
        {
            "buffer" : 0,
            "byteLength" : 78036,
            "byteOffset" : 304876
        },
        {
            "buffer" : 0,
            "byteLength" : 52024,
            "byteOffset" : 382912
        },
        {
            "buffer" : 0,
            "byteLength" : 15612,
            "byteOffset" : 434936
        }
    ],
    "buffers" : [
        {
            "byteLength" : 450548,
            "uri" : "data:application/octet-stream;base64,"
        }
    ]
}
