{
    "asset" : {
        "generator" : "Khronos glTF Blender I/O v1.3.48",
        "version" : "2.0"
    },
    "scene" : 0,
    "scenes" : [
        {
            "name" : "Scene",
            "nodes" : [
                0,
                1,
                2,
                3,
                4
            ]
        }
    ],
    "nodes" : [
        {
            "name" : "Light",
            "rotation" : [
                0.16907575726509094,
                0.7558803558349609,
                -0.27217137813568115,
                0.570947527885437
            ],
            "translation" : [
                4.076245307922363,
                5.903861999511719,
                -1.0054539442062378
            ]
        },
        {
            "name" : "Camera",
            "rotation" : [
                0.483536034822464,
                0.33687159419059753,
                -0.20870360732078552,
                0.7804827094078064
            ],
            "translation" : [
                7.358891487121582,
                4.958309173583984,
                6.925790786743164
            ]
        },
        {
            "mesh" : 0,
            "name" : "Curve.005",
            "rotation" : [
                0.7073338627815247,
                0,
                0,
                0.7068796157836914
            ],
            "translation" : [
                0.05751506984233856,
                0.10176185518503189,
                9.911019878927618e-05
            ]
        },
        {
            "mesh" : 1,
            "name" : "Curve.001",
            "rotation" : [
                0.7073338627815247,
                0,
                0,
                0.7068796157836914
            ],
            "translation" : [
                0.06029805541038513,
                0.09485138207674026,
                -0.003910460043698549
            ]
        },
        {
            "mesh" : 2,
            "name" : "Curve.148",
            "rotation" : [
                0.7085511684417725,
                0,
                0,
                0.7056594491004944
            ],
            "translation" : [
                0.0589800663292408,
                0.08215836435556412,
                -0.0036299382336437702
            ]
        }
    ],
    "materials" : [
        {
            "doubleSided" : true,
            "name" : "Material.008",
            "pbrMetallicRoughness" : {}
        },
        {
            "doubleSided" : true,
            "emissiveFactor" : [
                0,
                0,
                0
            ],
            "name" : "Material.004",
            "pbrMetallicRoughness" : {
                "baseColorFactor" : [
                    0.9118708968162537,
                    0.8980405926704407,
                    0.9258255958557129,
                    1
                ],
                "metallicFactor" : 0,
                "roughnessFactor" : 0.5
            }
        },
        {
            "doubleSided" : true,
            "emissiveFactor" : [
                0,
                0,
                0
            ],
            "name" : "Material.005",
            "pbrMetallicRoughness" : {
                "baseColorFactor" : [
                    0.8000000715255737,
                    0.01119271107017994,
                    0.020415889099240303,
                    1
                ],
                "metallicFactor" : 0,
                "roughnessFactor" : 0.5
            }
        },
        {
            "doubleSided" : true,
            "emissiveFactor" : [
                0,
                0,
                0
            ],
            "name" : "Material.007",
            "pbrMetallicRoughness" : {
                "baseColorFactor" : [
                    0.8000000715255737,
                    0.03032624162733555,
                    0.02106507495045662,
                    1
                ],
                "metallicFactor" : 0,
                "roughnessFactor" : 0.5
            }
        }
    ],
    "meshes" : [
        {
            "name" : "Curve.024",
            "primitives" : [
                {
                    "attributes" : {
                        "POSITION" : 0,
                        "NORMAL" : 1,
                        "TEXCOORD_0" : 2,
                        "COLOR_0" : 3
                    },
                    "indices" : 4,
                    "material" : 0
                }
            ]
        },
        {
            "name" : "Curve.025",
            "primitives" : [
                {
                    "attributes" : {
                        "POSITION" : 5,
                        "NORMAL" : 6,
                        "TEXCOORD_0" : 7
                    },
                    "indices" : 8,
                    "material" : 1
                }
            ]
        },
        {
            "name" : "Curve.169",
            "primitives" : [
                {
                    "attributes" : {
                        "POSITION" : 9,
                        "NORMAL" : 10,
                        "TEXCOORD_0" : 11
                    },
                    "indices" : 12,
                    "material" : 2
                },
                {
                    "attributes" : {
                        "POSITION" : 13,
                        "NORMAL" : 14,
                        "TEXCOORD_0" : 15
                    },
                    "indices" : 16,
                    "material" : 3
                }
            ]
        }
    ],
    "accessors" : [
        {
            "bufferView" : 0,
            "componentType" : 5126,
            "count" : 5462,
            "max" : [
                0.19551117718219757,
                0.015059362165629864,
                0.08768627047538757
            ],
            "min" : [
                -0.19768153131008148,
                -0.005831768270581961,
                -0.09125590324401855
            ],
            "type" : "VEC3"
        },
        {
            "bufferView" : 1,
            "componentType" : 5126,
            "count" : 5462,
            "type" : "VEC3"
        },
        {
            "bufferView" : 2,
            "componentType" : 5126,
            "count" : 5462,
            "type" : "VEC2"
        },
        {
            "bufferView" : 3,
            "componentType" : 5126,
            "count" : 5462,
            "type" : "VEC4"
        },
        {
            "bufferView" : 4,
            "componentType" : 5123,
            "count" : 11145,
            "type" : "SCALAR"
        },
        {
            "bufferView" : 5,
            "componentType" : 5126,
            "count" : 5462,
            "max" : [
                0.19551117718219757,
                0.015059362165629864,
                0.08768627047538757
            ],
            "min" : [
                -0.19768153131008148,
                -0.005002180580049753,
                -0.09125590324401855
            ],
            "type" : "VEC3"
        },
        {
            "bufferView" : 6,
            "componentType" : 5126,
            "count" : 5462,
            "type" : "VEC3"
        },
        {
            "bufferView" : 7,
            "componentType" : 5126,
            "count" : 5462,
            "type" : "VEC2"
        },
        {
            "bufferView" : 8,
            "componentType" : 5123,
            "count" : 11145,
            "type" : "SCALAR"
        },
        {
            "bufferView" : 9,
            "componentType" : 5126,
            "count" : 10197,
            "max" : [
                0.222231924533844,
                0,
                0.08393649011850357
            ],
            "min" : [
                -0.2900513708591461,
                0,
                -0.10981098562479019
            ],
            "type" : "VEC3"
        },
        {
            "bufferView" : 10,
            "componentType" : 5126,
            "count" : 10197,
            "type" : "VEC3"
        },
        {
            "bufferView" : 11,
            "componentType" : 5126,
            "count" : 10197,
            "type" : "VEC2"
        },
        {
            "bufferView" : 12,
            "componentType" : 5123,
            "count" : 29982,
            "type" : "SCALAR"
        },
        {
            "bufferView" : 13,
            "componentType" : 5126,
            "count" : 524,
            "max" : [
                0.20744919776916504,
                0,
                0.06887688487768173
            ],
            "min" : [
                -0.10142958909273148,
                0,
                -0.0419527105987072
            ],
            "type" : "VEC3"
        },
        {
            "bufferView" : 14,
            "componentType" : 5126,
            "count" : 524,
            "type" : "VEC3"
        },
        {
            "bufferView" : 15,
            "componentType" : 5126,
            "count" : 524,
            "type" : "VEC2"
        },
        {
            "bufferView" : 16,
            "componentType" : 5123,
            "count" : 1374,
            "type" : "SCALAR"
        }
    ],
    "bufferViews" : [
        {
            "buffer" : 0,
            "byteLength" : 65544,
            "byteOffset" : 0
        },
        {
            "buffer" : 0,
            "byteLength" : 65544,
            "byteOffset" : 65544
        },
        {
            "buffer" : 0,
            "byteLength" : 43696,
            "byteOffset" : 131088
        },
        {
            "buffer" : 0,
            "byteLength" : 87392,
            "byteOffset" : 174784
        },
        {
            "buffer" : 0,
            "byteLength" : 22290,
            "byteOffset" : 262176
        },
        {
            "buffer" : 0,
            "byteLength" : 65544,
            "byteOffset" : 284468
        },
        {
            "buffer" : 0,
            "byteLength" : 65544,
            "byteOffset" : 350012
        },
        {
            "buffer" : 0,
            "byteLength" : 43696,
            "byteOffset" : 415556
        },
        {
            "buffer" : 0,
            "byteLength" : 22290,
            "byteOffset" : 459252
        },
        {
            "buffer" : 0,
            "byteLength" : 122364,
            "byteOffset" : 481544
        },
        {
            "buffer" : 0,
            "byteLength" : 122364,
            "byteOffset" : 603908
        },
        {
            "buffer" : 0,
            "byteLength" : 81576,
            "byteOffset" : 726272
        },
        {
            "buffer" : 0,
            "byteLength" : 59964,
            "byteOffset" : 807848
        },
        {
            "buffer" : 0,
            "byteLength" : 6288,
            "byteOffset" : 867812
        },
        {
            "buffer" : 0,
            "byteLength" : 6288,
            "byteOffset" : 874100
        },
        {
            "buffer" : 0,
            "byteLength" : 4192,
            "byteOffset" : 880388
        },
        {
            "buffer" : 0,
            "byteLength" : 2748,
            "byteOffset" : 884580
        }
    ],
    "buffers" : [
        {
            "byteLength" : 887328,
            "uri" : "data:application/octet-stream;base64,"
        }
    ]
}
