<?xml version="1.0" standalone="no"?>
<!DOCTYPE svg PUBLIC "-//W3C//DTD SVG 20010904//EN"
 "http://www.w3.org/TR/2001/REC-SVG-20010904/DTD/svg10.dtd">
<svg version="1.0" xmlns="http://www.w3.org/2000/svg"
 width="300.000000pt" height="300.000000pt" viewBox="0 0 300.000000 300.000000"
 preserveAspectRatio="xMidYMid meet">
<metadata>
Created by potrace 1.14, written by Peter Selinger 2001-2017
</metadata>
<g transform="translate(0.000000,300.000000) scale(0.100000,-0.100000)"
fill="#000000" stroke="none">
<path d="M2465 2686 c-44 -18 -113 -46 -154 -61 -156 -59 -204 -155 -147 -295
14 -33 24 -60 23 -60 -1 0 -24 7 -51 15 -62 19 -170 19 -238 0 -29 -8 -114
-37 -188 -65 -74 -28 -171 -64 -215 -79 -76 -26 -183 -66 -595 -218 -96 -36
-229 -84 -295 -108 -66 -23 -199 -72 -295 -108 -96 -36 -205 -75 -243 -88 -48
-16 -67 -28 -67 -40 0 -10 13 -53 29 -96 49 -132 218 -594 368 -1008 73 -203
74 -205 86 -205 10 0 138 47 952 350 209 78 501 186 649 241 148 55 301 115
340 133 99 46 158 102 201 189 56 115 70 183 70 337 0 127 -2 141 -34 235 -18
55 -42 117 -52 137 -11 21 -19 39 -19 42 0 2 57 25 128 51 237 87 282 106 282
120 0 12 -88 245 -96 254 -1 2 -17 -2 -34 -8 -29 -10 -31 -9 -25 7 30 69 30
91 1 177 -36 105 -45 118 -109 155 -74 43 -161 41 -272 -4z"/>
</g>
</svg>
